<?xml version="1.0" standalone="no"?>
<!DOCTYPE svg PUBLIC "-//W3C//DTD SVG 20010904//EN"
 "http://www.w3.org/TR/2001/REC-SVG-20010904/DTD/svg10.dtd">
<svg version="1.0" xmlns="http://www.w3.org/2000/svg"
 width="1024.000000pt" height="1024.000000pt" viewBox="0 0 1024.000000 1024.000000"
 preserveAspectRatio="xMidYMid meet">

<g transform="translate(0.000000,1024.000000) scale(0.100000,-0.100000)"
fill="#000000" stroke="none">
<path d="M3315 7309 c-27 -24 -35 -39 -35 -66 0 -60 42 -113 89 -113 41 0 89
35 99 72 31 113 -67 182 -153 107z"/>
<path d="M7089 7301 c-26 -26 -29 -36 -29 -91 0 -51 4 -65 25 -85 43 -44 144
-25 165 31 14 36 12 107 -2 126 -45 55 -114 64 -159 19z"/>
<path d="M3616 7295 c-30 -15 -37 -57 -16 -103 10 -22 23 -43 29 -47 14 -8
2882 -9 2909 -1 43 14 54 91 19 131 l-22 26 -1449 2 c-950 1 -1457 -1 -1470
-8z"/>
<path d="M6780 7216 l0 -73 31 -7 c17 -3 64 -6 103 -6 l71 0 0 80 0 80 -102 0
-103 0 0 -74z"/>
<path d="M5413 6754 c-103 -129 -236 -296 -294 -369 -130 -163 -303 -409 -330
-470 -11 -25 -25 -45 -31 -45 -5 0 -45 -33 -87 -73 -42 -40 -92 -85 -111 -99
-19 -14 -94 -86 -165 -159 -143 -148 -628 -640 -1000 -1016 -217 -220 -242
-248 -261 -300 -60 -165 -100 -266 -176 -448 l-83 -201 -180 -175 c-355 -345
-382 -369 -417 -370 -48 -1 -62 -9 -108 -62 -47 -54 -63 -102 -49 -152 20 -71
-270 -65 3229 -64 l3160 1 12 21 c16 30 13 103 -6 132 -8 13 -29 26 -46 30
-19 4 -30 13 -30 24 0 22 -36 56 -73 70 -16 6 -70 11 -121 11 l-93 0 -16 38
c-73 167 -267 661 -280 712 -5 19 -32 39 -124 88 -206 109 -326 171 -395 205
l-67 32 -107 210 c-59 116 -185 360 -281 543 -95 183 -173 334 -173 335 0 1
135 1 300 -1 379 -3 379 -3 368 135 -6 72 -37 103 -102 103 -45 0 -96 -29 -96
-55 0 -11 -51 -13 -280 -13 l-281 1 -43 81 c-24 45 -80 151 -124 236 l-80 155
719 -3 718 -4 26 26 c43 44 31 112 -26 142 -27 14 -114 15 -775 13 -427 -1
-749 2 -754 7 -5 5 -35 70 -68 144 -58 132 -61 137 -150 224 -94 92 -163 144
-225 170 -21 8 -37 22 -37 30 0 15 -186 396 -194 396 -2 0 -89 -106 -193 -236z
m175 -387 c12 -13 19 -27 15 -32 -5 -4 -3 -5 4 -1 13 7 194 -139 190 -154 -1
-4 0 -8 3 -7 13 1 50 -25 45 -32 -2 -5 3 -8 12 -7 10 0 18 -4 18 -11 0 -6 4
-15 9 -20 5 -5 6 -3 2 5 -11 18 9 15 27 -5 26 -30 120 -245 120 -276 0 -15 4
-23 8 -16 9 16 32 -27 23 -44 -4 -6 -3 -9 1 -4 14 13 43 -65 34 -91 -5 -13 -9
-29 -8 -35 0 -7 5 1 11 17 8 21 13 25 19 15 4 -8 6 -24 2 -36 -3 -15 -1 -23 7
-23 9 0 11 -14 8 -48 -4 -45 -3 -48 16 -45 16 3 24 -3 33 -26 6 -17 7 -31 2
-31 -5 0 -9 6 -10 13 0 9 -2 9 -6 -1 -3 -8 -9 -10 -16 -3 -9 6 -13 -2 -14 -30
-2 -21 2 -39 7 -39 6 0 10 -9 10 -20 0 -11 -4 -20 -10 -20 -5 0 -10 -18 -10
-39 0 -26 -6 -44 -17 -53 -10 -7 -24 -25 -32 -40 -9 -17 -23 -28 -35 -28 -12
0 -34 -11 -50 -25 -22 -19 -38 -24 -66 -21 -20 1 -42 6 -49 10 -6 4 -16 4 -23
0 -7 -4 -8 -3 -4 4 4 6 -1 20 -11 30 -10 11 -27 31 -38 45 -11 14 -26 26 -33
27 -7 0 -10 5 -6 12 5 7 1 9 -13 6 -16 -4 -19 -1 -18 22 1 16 -3 27 -9 24 -6
-2 -24 14 -41 36 -16 21 -33 39 -38 40 -7 0 -75 67 -127 125 l-25 28 -3 -47
c-2 -30 13 -118 43 -244 43 -186 99 -437 130 -583 8 -36 12 -77 9 -90 -4 -17
-3 -20 4 -10 7 10 11 5 14 -18 4 -31 -5 -43 -16 -18 -3 6 -2 -8 1 -32 5 -35 3
-43 -8 -39 -8 2 -15 21 -17 41 -2 22 -8 37 -16 37 -16 0 -30 -71 -16 -80 5 -3
13 -22 16 -40 l7 -35 -24 34 c-14 20 -35 36 -49 38 -19 3 -22 1 -12 -9 6 -6
12 -16 12 -21 0 -14 -59 37 -59 51 -1 7 -6 10 -13 6 -7 -4 -8 -3 -4 5 7 11
-15 41 -31 41 -5 0 -13 10 -18 23 -6 12 -17 21 -24 19 -8 -2 -11 3 -8 12 6 14
-15 40 -25 31 -2 -3 -4 5 -4 18 1 16 -5 23 -22 25 -12 2 -20 8 -16 13 3 6 -11
27 -33 47 -21 20 -54 57 -73 82 -19 25 -55 67 -80 95 -25 27 -58 67 -74 88
-15 21 -32 37 -37 35 -5 -2 -131 -122 -281 -268 -150 -146 -321 -312 -380
-369 -121 -117 -118 -108 -93 -238 8 -43 18 -111 21 -150 l5 -73 -46 0 c-38 0
-45 -3 -43 -17 2 -11 -4 -18 -17 -20 l-20 -3 20 10 c17 9 16 10 -8 5 -15 -3
-36 -1 -46 5 -21 11 -107 21 -188 22 -29 0 -50 5 -47 9 3 5 0 9 -5 9 -6 0 -11
-5 -11 -11 0 -5 -4 -8 -9 -4 -5 3 -12 1 -16 -5 -13 -21 -56 -10 -86 22 -16 19
-41 34 -55 35 -14 1 -34 11 -44 22 -9 12 -25 21 -34 21 -9 0 -16 4 -16 9 0 5
-10 11 -22 15 -18 5 -20 8 -9 15 12 8 12 11 0 24 -8 8 -26 18 -39 22 -40 12
-52 25 -39 41 9 11 8 14 -1 14 -10 0 -10 3 0 15 10 12 10 15 0 15 -6 0 1 15
17 34 19 24 34 33 47 29 15 -4 18 -2 12 12 -7 20 21 58 36 49 4 -3 7 -2 6 3
-2 5 17 29 41 53 24 25 40 38 36 30 -8 -13 -7 -13 8 -1 10 8 15 16 13 19 -10
9 36 63 50 58 9 -3 11 0 7 11 -5 12 -3 14 8 8 8 -4 11 -4 6 0 -9 11 23 46 35
39 4 -3 7 0 6 8 -2 7 2 12 9 11 7 -2 10 3 7 10 -5 13 54 64 69 59 5 -1 6 2 2
8 -7 12 202 229 678 703 182 180 345 347 363 370 19 23 39 42 46 42 7 0 13 9
13 20 0 11 6 19 13 17 8 -1 11 2 7 8 -4 6 27 52 67 103 79 98 286 365 329 425
40 55 74 64 107 29z m592 -827 c0 -5 -5 -10 -11 -10 -5 0 -7 5 -4 10 3 6 8 10
11 10 2 0 4 -4 4 -10z m40 -75 c0 -5 -5 -3 -10 5 -5 8 -10 20 -10 25 0 6 5 3
10 -5 5 -8 10 -19 10 -25z m-830 -805 c0 -5 -2 -10 -4 -10 -3 0 -8 5 -11 10
-3 6 -1 10 4 10 6 0 11 -4 11 -10z m327 -182 c-3 -8 -6 -5 -6 6 -1 11 2 17 5
13 3 -3 4 -12 1 -19z m-2187 -282 c0 -2 -8 -10 -17 -17 -16 -13 -17 -12 -4 4
13 16 21 21 21 13z m-11 -48 c-12 -23 -28 -38 -41 -38 -7 0 43 59 50 60 1 0
-3 -10 -9 -22z m-29 8 c0 -2 -8 -10 -17 -17 -16 -13 -17 -12 -4 4 13 16 21 21
21 13z m495 -246 c-10 -11 -13 -20 -7 -20 6 0 14 5 17 10 3 6 16 9 28 9 20 -1
21 -2 2 -6 -11 -3 -24 -8 -30 -13 -18 -13 -70 -6 -70 10 0 10 8 14 23 13 12
-2 22 2 22 7 0 6 7 10 17 10 14 0 14 -2 -2 -20z m179 -10 c-5 -5 -25 -12 -44
-15 -35 -5 -35 -5 5 9 51 18 51 18 39 6z m-121 -17 c-7 -2 -19 -2 -25 0 -7 3
-2 5 12 5 14 0 19 -2 13 -5z m157 -18 c0 -2 -17 -3 -37 -3 -28 0 -33 2 -18 8
17 6 55 3 55 -5z"/>
<path d="M5500 6348 c-10 -21 -10 -21 3 -6 8 10 17 15 20 11 4 -3 7 -1 7 5 0
20 -19 13 -30 -10z"/>
<path d="M5900 5190 c-8 -5 -11 -12 -7 -16 4 -4 13 -2 19 4 15 15 7 24 -12 12z"/>
<path d="M3680 4339 c0 -5 5 -7 10 -4 6 3 10 8 10 11 0 2 -4 4 -10 4 -5 0 -10
-5 -10 -11z"/>
<path d="M3645 4309 c-11 -16 -1 -19 13 -3 7 8 8 14 3 14 -5 0 -13 -5 -16 -11z"/>
<path d="M3650 4270 c-8 -5 -12 -12 -9 -15 4 -3 12 1 19 10 14 17 11 19 -10 5z"/>
<path d="M3595 4260 c-3 -5 -1 -10 4 -10 6 0 11 5 11 10 0 6 -2 10 -4 10 -3 0
-8 -4 -11 -10z"/>
<path d="M3565 4229 c-11 -17 1 -21 15 -4 8 9 8 15 2 15 -6 0 -14 -5 -17 -11z"/>
<path d="M3560 4190 c0 -5 5 -10 10 -10 6 0 10 5 10 10 0 6 -4 10 -10 10 -5 0
-10 -4 -10 -10z"/>
<path d="M3580 4170 c-9 -6 -10 -10 -3 -10 6 0 15 5 18 10 8 12 4 12 -15 0z"/>
<path d="M3930 3900 c0 -5 5 -10 10 -10 6 0 10 5 10 10 0 6 -4 10 -10 10 -5 0
-10 -4 -10 -10z"/>
<path d="M3605 6961 c-38 -16 -56 -46 -58 -99 -4 -94 -67 -87 745 -87 l712 0
23 35 c18 25 22 42 18 65 -9 41 -37 78 -66 86 -35 10 -1350 9 -1374 0z"/>
<path d="M3305 6935 c-20 -20 -25 -34 -25 -78 0 -63 17 -85 73 -94 31 -5 40
-1 67 25 24 25 30 39 30 75 0 63 -29 97 -81 97 -29 0 -47 -7 -64 -25z"/>
<path d="M3314 6526 c-29 -29 -34 -41 -34 -83 0 -51 10 -68 57 -92 56 -29 113
29 113 113 0 36 -5 52 -25 71 -34 35 -70 32 -111 -9z"/>
<path d="M3875 6550 c-165 -3 -301 -7 -303 -8 -2 -1 -10 -18 -18 -37 -18 -44
-18 -94 2 -120 14 -19 28 -20 410 -23 l394 -3 10 26 c13 35 13 88 -2 120 -18
39 -57 55 -130 53 -35 -1 -198 -5 -363 -8z"/>
<path d="M4560 6550 c-11 -7 -16 -32 -18 -93 -5 -102 -16 -97 194 -97 141 0
152 1 170 21 14 15 19 36 19 76 0 48 -4 58 -28 79 -27 23 -34 24 -175 24 -81
0 -154 -5 -162 -10z"/>
<path d="M6475 6550 c-11 -4 -31 -20 -44 -34 -47 -50 -24 -176 35 -190 39 -10
92 11 109 44 17 34 20 112 4 142 -8 15 -68 50 -81 47 -2 0 -12 -4 -23 -9z"/>
<path d="M3582 6123 c-35 -14 -54 -106 -31 -157 l12 -25 396 -3 c218 -2 407 0
421 3 13 3 33 19 43 37 23 39 14 96 -19 129 l-23 23 -393 -1 c-216 0 -399 -3
-406 -6z"/>
<path d="M3313 6105 c-27 -19 -47 -78 -39 -118 10 -49 33 -67 86 -67 61 0 82
22 88 93 3 42 0 57 -18 80 -25 31 -81 37 -117 12z"/>
<path d="M12 102 c-7 -2 -12 -23 -12 -53 0 -48 1 -49 30 -49 29 0 30 2 30 45
0 25 -1 48 -2 52 -3 8 -29 11 -46 5z"/>
</g>
</svg>
